<svg width="35" height="35" viewBox="0 0 35 35" fill="none" xmlns="http://www.w3.org/2000/svg">
<g clip-path="url(#clip0)">
<path d="M17.5296 2.5504e-05C7.87554 -0.0162891 0.0361377 7.79663 0.0198232 17.4507C0.0117756 22.2234 1.95555 26.7918 5.39997 30.0956C5.40999 30.1055 5.41373 30.1205 5.42368 30.1293C5.52478 30.2267 5.63467 30.3091 5.73709 30.4028C6.01802 30.6524 6.29895 30.9109 6.59488 31.1519C6.75342 31.2768 6.91825 31.4016 7.08059 31.5165C7.36028 31.725 7.63997 31.9335 7.93209 32.1258C8.13065 32.2507 8.33542 32.3755 8.53888 32.5004C8.80855 32.6627 9.07704 32.8262 9.35548 32.9748C9.5915 33.0997 9.83241 33.207 10.0722 33.3206C10.3344 33.4455 10.5928 33.5703 10.8613 33.6827C11.1297 33.7951 11.3994 33.8825 11.6716 33.9799C11.9437 34.0773 12.1785 34.1672 12.4394 34.2471C12.7341 34.3357 13.0363 34.4044 13.3359 34.478C13.5856 34.5392 13.8279 34.6091 14.0851 34.6591C14.4297 34.7278 14.7793 34.7715 15.1289 34.819C15.345 34.8489 15.556 34.8914 15.7744 34.9126C16.3463 34.9688 16.9231 35 17.5049 35C18.0868 35 18.6636 34.9688 19.2355 34.9126C19.454 34.8914 19.665 34.8489 19.8809 34.819C20.2306 34.7715 20.5801 34.7278 20.9248 34.6591C21.1745 34.6091 21.4242 34.5342 21.6739 34.478C21.9736 34.4044 22.2757 34.3357 22.5704 34.2471C22.8314 34.1672 23.0836 34.0698 23.3383 33.9799C23.5931 33.89 23.8827 33.7926 24.1486 33.6827C24.4146 33.5728 24.6755 33.4442 24.9377 33.3206C25.1775 33.207 25.4185 33.0996 25.6544 32.9748C25.9328 32.8262 26.2013 32.6627 26.471 32.5004C26.6745 32.3755 26.8793 32.2619 27.0778 32.1258C27.37 31.9335 27.6497 31.725 27.9293 31.5165C28.0916 31.3916 28.2564 31.2792 28.415 31.1519C28.7109 30.9147 28.9919 30.6625 29.2728 30.4028C29.3751 30.3091 29.485 30.2267 29.5862 30.1293C29.5962 30.1206 29.6 30.1056 29.6099 30.0956C33.042 26.8086 34.9819 22.2619 34.9801 17.5098C34.9966 7.85574 27.1836 0.0163401 17.5296 2.5504e-05ZM29.7037 26.1713C28.9025 22.4341 26.4415 19.2658 23.0187 17.5647C25.8167 14.5168 25.6141 9.77779 22.5662 6.9798C19.5182 4.18182 14.7792 4.38447 11.9813 7.43237C9.35088 10.2977 9.35088 14.6994 11.9813 17.5647C8.55849 19.2658 6.09755 22.434 5.2963 26.1713C0.499603 19.4446 2.06419 10.1029 8.79099 5.30621C11.3328 3.49368 14.3781 2.52176 17.5 2.52673C25.7619 2.51357 32.47 9.20041 32.4832 17.4622C32.4881 20.5842 31.5162 23.6294 29.7037 26.1713Z" fill="white"/>
</g>
<defs>
<clipPath id="clip0">
<rect width="35" height="35" fill="white"/>
</clipPath>
</defs>
</svg>
